<svg width="44" height="43" viewBox="0 0 44 43" fill="none" xmlns="http://www.w3.org/2000/svg">
<path d="M10.471 0.0107422C4.7001 0.0107422 0 4.49941 0 10.0107V32.0107C0 37.5221 4.7001 42.0107 10.471 42.0107H33.5073C39.2782 42.0107 43.9783 37.5221 43.9783 32.0107V10.0107C43.9783 4.49941 39.2782 0.0107422 33.5073 0.0107422H10.471ZM10.471 2.01074H33.5073C38.1467 2.01074 41.8841 5.58007 41.8841 10.0107V32.0107C41.8841 36.4414 38.1467 40.0107 33.5073 40.0107H10.471C5.83166 40.0107 2.09421 36.4414 2.09421 32.0107V10.0107C2.09421 5.58007 5.83166 2.01074 10.471 2.01074ZM19.4471 7.91309C19.0446 7.8885 18.629 7.97337 18.2548 8.18262C17.2569 8.74162 16.923 9.9679 17.5083 10.9209L19.4041 14.0107L13.2626 24.0205H8.37683C7.22083 24.0205 6.28263 24.9165 6.28263 26.0205C6.28263 27.1245 7.22083 28.0205 8.37683 28.0205H24.5149C24.6793 27.2575 24.5789 26.43 24.1181 25.665L24.114 25.6611C23.7088 24.9871 23.1467 24.4365 22.4923 24.0205H18.1178L26.1551 10.919C26.7394 9.96595 26.4045 8.74062 25.4066 8.18262C24.4076 7.62462 23.1256 7.94446 22.5414 8.89746L21.8317 10.0537L21.122 8.89746C20.7562 8.30183 20.1179 7.95407 19.4471 7.91309ZM25.4556 15.9619L24.5906 17.335C23.6356 18.851 23.6048 20.7274 24.4781 22.2764L31.0716 33.0225C31.4611 33.6585 32.1601 34.0107 32.8794 34.0107C33.2386 34.0107 33.6038 33.9233 33.9368 33.7373C34.9347 33.1793 35.2686 31.954 34.6833 31.001L32.8549 28.0205H35.6015C36.7575 28.0205 37.6957 27.1245 37.6957 26.0205C37.6957 24.9165 36.7575 24.0205 35.6015 24.0205H30.4008L25.4556 15.9619ZM11.1255 30.0244C10.5422 30.0084 9.97546 30.0948 9.4362 30.2568L8.96991 31.0147C8.38458 31.9667 8.72054 33.193 9.71842 33.751C10.0514 33.938 10.4145 34.0264 10.7737 34.0264C11.4931 34.0264 12.1931 33.6711 12.5836 33.0361L13.7105 31.2002C13.0979 30.5172 12.2028 30.0544 11.1316 30.0244H11.1255Z" fill="#9CC2F9"/>
</svg>
