<svg width="43" height="46" viewBox="0 0 43 46" fill="none" xmlns="http://www.w3.org/2000/svg">
<path d="M1.95597 0.0206123C1.9437 0.0245223 1.93552 0.0479523 1.92325 0.0518623C1.89462 0.0557723 1.85371 0.0440523 1.82508 0.0518623C1.60421 0.0753023 1.3997 0.161242 1.23609 0.301862C0.532572 0.669052 0.0908203 1.42295 0.0908203 2.23936V44.0206C0.0908203 44.6417 0.37714 45.2941 0.908869 45.6769C1.15429 45.9386 1.52649 46.0558 1.89053 45.9894C2.36909 46.0128 2.87219 45.9112 3.29757 45.6769C4.18516 45.1847 22.309 35.1769 22.309 35.1769L31.7657 29.9581C31.7861 29.9503 31.8107 29.9386 31.8311 29.9269L31.962 29.8644C31.962 29.8644 32.0888 29.8019 32.0929 29.8019C32.1052 29.7901 32.1133 29.7823 32.1256 29.7706C32.4078 29.6144 40.1548 25.3566 41.2223 24.7706C41.9586 24.3644 42.5435 23.7042 42.5312 22.8956C42.5189 22.087 41.9218 21.4581 41.2551 21.1144C40.8869 20.9269 38.4982 19.6222 36.2813 18.3956C34.0644 17.1691 31.962 15.9894 31.962 15.9894L22.309 10.6769C22.309 10.6769 4.75779 0.997172 3.72296 0.426862C3.35892 0.227642 2.94581 0.0674923 2.54497 0.0206123C2.34454 -0.00282773 2.1523 -0.0106377 1.95597 0.0206123ZM2.18503 2.70811L23.5197 22.9269L2.18503 43.1456V2.70811ZM7.15876 4.61436C12.4843 7.55186 21.2619 12.3956 21.2619 12.3956L29.7042 17.0519L24.9922 21.5206L7.15876 4.61436ZM31.5693 18.0831C32.0725 18.3644 33.3527 19.0753 35.2342 20.1144C37.4511 21.3409 39.7253 22.5831 40.2734 22.8644C40.3266 22.8917 40.3102 22.9073 40.3388 22.9269C40.2979 22.9542 40.2857 22.962 40.1752 23.0206C39.169 23.5753 32.6451 27.1925 31.6021 27.7706L26.4647 22.9269L31.5693 18.0831ZM24.9922 24.3019L29.7369 28.8019L21.2619 33.4581C21.2619 33.4581 12.7133 38.1691 7.19149 41.2081L24.9922 24.3019Z" fill="#9CC2F9"/>
</svg>
