<svg width="48" height="45" viewBox="0 0 48 45" fill="none" xmlns="http://www.w3.org/2000/svg">
<path d="M14.5791 0.0205078C7.074 0.0205078 0.966797 5.85299 0.966797 13.0205V31.0205C0.966797 38.188 7.074 44.0205 14.5791 44.0205H33.427C40.9321 44.0205 47.0393 38.188 47.0393 31.0205V13.0205C47.0393 5.85299 40.9321 0.0205078 33.427 0.0205078H14.5791ZM14.5791 2.02051H33.427C39.8002 2.02051 44.9451 6.93403 44.9451 13.0205V31.0205C44.9451 37.107 39.8002 42.0205 33.427 42.0205H14.5791C8.20596 42.0205 3.061 37.107 3.061 31.0205V13.0205C3.061 6.93403 8.20596 2.02051 14.5791 2.02051ZM36.5683 8.02051C35.4117 8.02051 34.4741 8.91594 34.4741 10.0205C34.4741 11.1251 35.4117 12.0205 36.5683 12.0205C37.7249 12.0205 38.6625 11.1251 38.6625 10.0205C38.6625 8.91594 37.7249 8.02051 36.5683 8.02051ZM24.0031 11.0205C17.6542 11.0205 12.4849 15.9572 12.4849 22.0205C12.4849 28.0838 17.6542 33.0205 24.0031 33.0205C30.3519 33.0205 35.5212 28.0838 35.5212 22.0205C35.5212 15.9572 30.3519 11.0205 24.0031 11.0205ZM24.0031 13.0205C29.2202 13.0205 33.427 17.0381 33.427 22.0205C33.427 27.0029 29.2202 31.0205 24.0031 31.0205C18.786 31.0205 14.5791 27.0029 14.5791 22.0205C14.5791 17.0381 18.786 13.0205 24.0031 13.0205Z" fill="#9CC2F9"/>
</svg>
