<svg width="44" height="43" viewBox="0 0 44 43" fill="none" xmlns="http://www.w3.org/2000/svg">
<path d="M5.26481 0.0205078C2.38578 0.0205078 0.0292969 2.27099 0.0292969 5.02051V37.0205C0.0292969 39.77 2.38578 42.0205 5.26481 42.0205H38.7721C41.6511 42.0205 44.0076 39.77 44.0076 37.0205V5.02051C44.0076 2.27099 41.6511 0.0205078 38.7721 0.0205078H5.26481ZM5.26481 2.02051H38.7721C40.5192 2.02051 41.9134 3.35203 41.9134 5.02051V37.0205C41.9134 38.689 40.5192 40.0205 38.7721 40.0205H5.26481C3.51774 40.0205 2.1235 38.689 2.1235 37.0205V5.02051C2.1235 3.35203 3.51774 2.02051 5.26481 2.02051ZM20.3394 12.0127C19.2321 12.0103 18.2448 12.0694 17.3617 12.4834C17.361 12.484 17.3603 12.4847 17.3597 12.4853C16.9292 12.6879 16.6257 12.9452 16.3841 13.251C16.2633 13.4039 16.1396 13.5411 16.0733 13.8896C16.0401 14.0639 16.0215 14.3463 16.2124 14.6514C16.4032 14.9564 16.7869 15.1299 17.0324 15.1611C17.203 15.1828 17.588 15.3393 17.6235 15.3857C17.6242 15.387 17.6248 15.3884 17.6255 15.3897C17.6258 15.39 17.7748 15.7617 17.8178 16.0928C17.8607 16.4239 17.8587 16.6924 17.8587 16.6924C17.8582 16.7191 17.8589 16.7458 17.8607 16.7725C17.8607 16.7725 17.9214 17.64 17.8812 18.5361C17.8651 18.8933 17.8168 19.211 17.7666 19.4951C17.3937 19.102 16.8443 18.39 16.0508 17.0772C15.1705 15.62 14.4699 14.3135 14.4699 14.3135C14.4331 14.1997 14.303 13.8455 13.795 13.4893C13.2397 13.0984 12.7029 13.04 12.7029 13.04C12.6356 13.0271 12.5671 13.0206 12.4984 13.0205L8.37134 13.0225C8.37134 13.0225 8.12388 13.0088 7.82733 13.0479C7.53077 13.0869 7.08423 13.1187 6.65344 13.6064C6.65276 13.6071 6.65208 13.6077 6.6514 13.6084C6.26639 14.0477 6.28967 14.5333 6.33645 14.8076C6.38321 15.0819 6.48779 15.29 6.48779 15.29C6.48981 15.294 6.49185 15.2979 6.49392 15.3018C6.49392 15.3018 9.86967 22.08 13.6846 26.0713C16.4549 28.9693 19.2983 29.0186 21.6442 29.0186H23.3948C23.8418 29.0186 24.246 29.0019 24.6935 28.7529C25.1409 28.504 25.442 27.8979 25.442 27.4775C25.442 27.037 25.5109 26.6907 25.5954 26.5127C25.6548 26.3875 25.7019 26.3424 25.7753 26.3057C25.7909 26.3151 25.7808 26.3096 25.8244 26.3389C25.9987 26.4559 26.2866 26.7228 26.5995 27.0557C27.2254 27.7214 27.9359 28.6346 28.8901 29.2608C29.5736 29.7097 30.2193 29.9091 30.7102 29.9815C31.0178 30.0268 31.2566 30.018 31.426 30.0049L35.3363 30.0205C35.3595 30.0206 35.3827 30.02 35.4058 30.0186C35.4058 30.0186 36.0796 30.0261 36.7801 29.626C37.1304 29.4259 37.5435 29.0466 37.678 28.4932C37.8124 27.9397 37.6434 27.3663 37.3139 26.8428C37.3139 26.8421 37.3139 26.8415 37.3139 26.8408C37.3711 26.9314 37.2621 26.7453 37.1503 26.5713C37.0385 26.3974 36.8762 26.1629 36.6431 25.8721C36.177 25.2904 35.4305 24.4764 34.2237 23.4033C34.2231 23.4033 34.2224 23.4033 34.2217 23.4033C33.6088 22.8588 33.1949 22.4732 33.0253 22.2588C32.8557 22.0444 32.9113 22.1571 32.923 22.1026C32.9465 21.9936 33.6821 20.9802 35.1788 19.0713C36.0886 17.9094 36.7271 17.0371 37.1483 16.3115C37.5694 15.586 37.873 14.9576 37.6616 14.1885C37.6609 14.1872 37.6602 14.1859 37.6595 14.1846C37.5657 13.847 37.3093 13.5358 37.046 13.3662C36.7827 13.1967 36.5331 13.1304 36.3098 13.0889C35.8631 13.0059 35.4733 13.0205 35.1113 13.0205C34.3524 13.0205 30.9853 13.0459 30.7082 13.0459C30.3807 13.0459 29.8392 13.1882 29.5997 13.3252C28.9975 13.6713 28.8246 14.126 28.8246 14.126C28.8137 14.1452 28.8035 14.1647 28.7939 14.1846C28.7939 14.1846 28.0994 15.6555 27.2049 17.1084C26.2987 18.5821 25.6293 19.285 25.2252 19.6104C25.2141 19.5525 25.216 19.5995 25.2089 19.5186C25.1726 19.107 25.2129 18.5383 25.2129 17.9834C25.2129 16.4889 25.3456 15.4429 25.2743 14.5186C25.2387 14.0564 25.149 13.5798 24.8305 13.1416C24.512 12.7034 23.982 12.4188 23.4582 12.2979C23.1439 12.2255 22.7857 12.0372 21.4888 12.0244C21.4881 12.0244 21.4874 12.0244 21.4867 12.0244C21.0901 12.0206 20.7085 12.0135 20.3394 12.0127ZM21.4663 14.0244C22.6139 14.0357 22.328 14.096 22.9654 14.2432C23.163 14.2888 23.1151 14.2885 23.1106 14.2822C23.1059 14.2759 23.164 14.379 23.1862 14.667C23.2306 15.2429 23.1187 16.3879 23.1187 17.9834C23.1187 18.4185 23.0638 19.0393 23.1208 19.6865C23.1777 20.3337 23.3458 21.1643 24.1556 21.6651C24.5395 21.9027 24.9852 21.9177 25.3663 21.8272C25.7475 21.7367 26.0933 21.5482 26.4564 21.2705C27.1826 20.7152 27.9926 19.778 29.0107 18.1221C29.9624 16.5764 30.6545 15.1045 30.6775 15.0557C30.682 15.0522 30.6866 15.0499 30.6918 15.0459C30.7049 15.046 30.6914 15.0459 30.7082 15.0459C31.0991 15.0459 34.4043 15.0205 35.1114 15.0205C35.2764 15.0205 35.3365 15.03 35.4672 15.0342C35.4317 15.1475 35.4712 15.0752 35.3159 15.3428C34.9901 15.904 34.3899 16.738 33.5018 17.8721C32.0426 19.7332 31.1381 20.4625 30.8718 21.6982C30.7387 22.3161 30.9882 23.001 31.3545 23.4639C31.7207 23.9267 32.183 24.3233 32.7963 24.8682C33.9319 25.8781 34.5982 26.6118 34.9805 27.0889C35.1716 27.3274 35.2921 27.4997 35.367 27.6162C35.4419 27.7327 35.4234 27.7204 35.5204 27.874C35.5842 27.9762 35.5607 27.9139 35.5715 27.9443C35.446 27.9781 35.2938 28.0188 35.2852 28.0205L31.4342 28.0049C31.3649 28.0048 31.2957 28.0114 31.2277 28.0244C31.2277 28.0244 31.2373 28.0352 31.0313 28.0049C30.8253 27.9745 30.4977 27.8894 30.0763 27.6123C29.5676 27.2785 28.8555 26.4617 28.1579 25.7197C27.8091 25.3487 27.4612 24.9924 27.029 24.7021C26.5968 24.4119 25.95 24.1389 25.2518 24.3486C24.527 24.566 23.9628 25.1062 23.6873 25.6865C23.4822 26.1185 23.4656 26.5697 23.4337 27.0185C23.3989 27.021 23.4389 27.0185 23.3948 27.0185H21.6442C19.2656 27.0185 17.5766 27.1757 15.2307 24.7217C12.0753 21.4204 9.18425 15.9275 8.7129 15.0225L12.345 15.0205C12.4089 15.0439 12.5455 15.0929 12.5536 15.0986C12.555 15.0999 12.5564 15.1012 12.5577 15.1025C12.425 15.0099 12.5639 15.1397 12.5639 15.1397C12.5767 15.1696 12.591 15.1989 12.6068 15.2275C12.6068 15.2275 13.3265 16.5703 14.2368 18.0772C15.1297 19.5543 15.7803 20.4771 16.4087 21.0869C16.7229 21.3918 17.0401 21.6363 17.464 21.7744C17.8879 21.9125 18.4353 21.8619 18.8035 21.669C19.5558 21.2757 19.6569 20.6956 19.7791 20.1885C19.9014 19.6806 19.9501 19.1396 19.9734 18.6221C20.0184 17.6175 19.9547 16.748 19.9509 16.6943C19.9511 16.6755 19.9559 16.313 19.8957 15.8486C19.834 15.3732 19.7652 14.7919 19.3148 14.2061L19.3128 14.2041C19.3097 14.2 19.3057 14.2003 19.3026 14.1963C19.8981 14.1147 20.4076 14.0143 21.4663 14.0244ZM30.7041 15.0049L30.6898 15.0361C30.6876 15.0373 30.6883 15.0347 30.6857 15.0361C30.6901 15.0281 30.7041 15.0049 30.7041 15.0049Z" fill="#9CC2F9"/>
</svg>
